<svg width="24" height="25" viewBox="0 0 24 25" fill="none" xmlns="http://www.w3.org/2000/svg">
<path d="M14.9754 3.42529L15.9352 1.69369C15.9475 1.67148 15.9553 1.64706 15.9582 1.62182C15.9611 1.59658 15.9589 1.57103 15.9519 1.54661C15.9449 1.52219 15.9332 1.49939 15.9174 1.47952C15.9016 1.45964 15.882 1.44307 15.8598 1.43075C15.8149 1.40588 15.762 1.39985 15.7127 1.41398C15.6634 1.42812 15.6217 1.46127 15.5968 1.50614L14.6264 3.25692C13.7984 2.89392 12.9041 2.70651 12 2.70651C11.0959 2.70651 10.2017 2.89392 9.37364 3.25692L8.40316 1.50614C8.37829 1.46127 8.33661 1.42812 8.2873 1.41398C8.23799 1.39985 8.18508 1.40588 8.14022 1.43075C8.09535 1.45562 8.0622 1.4973 8.04807 1.54661C8.03393 1.59592 8.03996 1.64883 8.06483 1.69369L9.02468 3.4253C8.11101 3.87566 7.33902 4.56896 6.79339 5.42915C6.24776 6.28933 5.94957 7.28317 5.93152 8.30164H18.0685C18.0505 7.28316 17.7523 6.28932 17.2066 5.42914C16.661 4.56896 15.889 3.87566 14.9754 3.42529ZM9.19911 6.08088C9.09888 6.08088 9.00089 6.05116 8.91755 5.99547C8.83421 5.93979 8.76925 5.86063 8.73089 5.76803C8.69253 5.67542 8.6825 5.57352 8.70205 5.47521C8.72161 5.3769 8.76987 5.2866 8.84075 5.21572C8.91163 5.14485 9.00193 5.09658 9.10024 5.07702C9.19855 5.05747 9.30045 5.0675 9.39306 5.10586C9.48566 5.14422 9.56481 5.20918 9.6205 5.29252C9.67619 5.37586 9.70591 5.47385 9.70591 5.57409C9.70576 5.70845 9.65232 5.83727 9.55731 5.93228C9.4623 6.02729 9.33348 6.08073 9.19911 6.08088ZM14.8009 6.08088C14.7007 6.08088 14.6027 6.05116 14.5193 5.99547C14.436 5.93979 14.371 5.86063 14.3327 5.76803C14.2943 5.67542 14.2843 5.57352 14.3038 5.47521C14.3234 5.3769 14.3717 5.2866 14.4425 5.21572C14.5134 5.14485 14.6037 5.09658 14.702 5.07702C14.8003 5.05747 14.9022 5.0675 14.9948 5.10586C15.0874 5.14422 15.1666 5.20918 15.2223 5.29252C15.278 5.37586 15.3077 5.47385 15.3077 5.57409C15.3075 5.70845 15.2541 5.83727 15.1591 5.93228C15.0641 6.02729 14.9353 6.08073 14.8009 6.08088ZM5.93143 17.5779C5.93143 17.967 6.086 18.3402 6.36114 18.6153C6.63629 18.8904 7.00945 19.045 7.39856 19.045H8.37216V22.046C8.37168 22.2249 8.40651 22.4022 8.47466 22.5677C8.54281 22.7332 8.64295 22.8836 8.76932 23.0103C8.8957 23.1371 9.04584 23.2376 9.21114 23.3062C9.37644 23.3748 9.55365 23.4101 9.73262 23.4101C9.91159 23.4101 10.0888 23.3748 10.2541 23.3062C10.4194 23.2376 10.5695 23.1371 10.6959 23.0103C10.8223 22.8836 10.9224 22.7332 10.9906 22.5677C11.0587 22.4022 11.0936 22.2249 11.0931 22.046V19.045H12.9069V22.046C12.9064 22.2249 12.9413 22.4022 13.0094 22.5677C13.0776 22.7332 13.1777 22.8836 13.3041 23.0103C13.4305 23.1371 13.5806 23.2376 13.7459 23.3062C13.9112 23.3748 14.0884 23.4101 14.2674 23.4101C14.4464 23.4101 14.6236 23.3748 14.7889 23.3062C14.9542 23.2376 15.1043 23.1371 15.2307 23.0103C15.3571 22.8836 15.4572 22.7332 15.5253 22.5677C15.5935 22.4022 15.6283 22.2249 15.6278 22.046V19.045H16.6015C16.9906 19.045 17.3638 18.8904 17.6389 18.6153C17.914 18.3402 18.0686 17.967 18.0686 17.5779V8.78175H5.93143V17.5779ZM4.06415 8.54833C3.70346 8.54874 3.35766 8.69221 3.10262 8.94726C2.84757 9.20231 2.70411 9.54811 2.7037 9.9088V15.5773C2.70322 15.7562 2.73805 15.9335 2.8062 16.099C2.87435 16.2645 2.97449 16.4149 3.10086 16.5416C3.22724 16.6684 3.37738 16.7689 3.54268 16.8375C3.70798 16.9061 3.88519 16.9414 4.06416 16.9414C4.24313 16.9414 4.42034 16.9061 4.58563 16.8375C4.75093 16.7689 4.90107 16.6684 5.02745 16.5416C5.15383 16.4149 5.25396 16.2645 5.32211 16.099C5.39027 15.9335 5.4251 15.7562 5.42461 15.5773V9.9088C5.4242 9.5481 5.28074 9.2023 5.02569 8.94725C4.77064 8.69221 4.42484 8.54874 4.06415 8.54833ZM19.9359 8.54833C19.5752 8.54874 19.2294 8.69221 18.9743 8.94725C18.7193 9.2023 18.5758 9.5481 18.5754 9.9088V15.5773C18.5749 15.7562 18.6097 15.9335 18.6779 16.099C18.746 16.2645 18.8462 16.4149 18.9726 16.5416C19.0989 16.6684 19.2491 16.7689 19.4144 16.8375C19.5797 16.9061 19.7569 16.9414 19.9358 16.9414C20.1148 16.9414 20.292 16.9061 20.4573 16.8375C20.6226 16.7689 20.7728 16.6684 20.8991 16.5416C21.0255 16.4149 21.1257 16.2645 21.1938 16.099C21.262 15.9335 21.2968 15.7562 21.2963 15.5773V9.9088C21.2959 9.54811 21.1524 9.20231 20.8974 8.94726C20.6423 8.69221 20.2965 8.54874 19.9359 8.54833Z" fill="white"/>
</svg>
