<svg width="24" height="25" viewBox="0 0 24 25" fill="none" xmlns="http://www.w3.org/2000/svg">
<path d="M18.54 9.50003L8.88 3.96003C8.35729 3.65819 7.764 3.50006 7.16039 3.50172C6.55679 3.50338 5.96438 3.66476 5.44333 3.96947C4.92228 4.27417 4.49115 4.71135 4.19375 5.2366C3.89634 5.76185 3.74324 6.35646 3.75 6.96003V18.08C3.75 18.9871 4.11032 19.857 4.7517 20.4983C5.39307 21.1397 6.26296 21.5 7.17 21.5C7.77044 21.499 8.36009 21.3404 8.88 21.04L18.54 15.5C19.0591 15.1996 19.49 14.768 19.7896 14.2485C20.0892 13.7289 20.2469 13.1397 20.2469 12.54C20.2469 11.9403 20.0892 11.3511 19.7896 10.8316C19.49 10.3121 19.0591 9.88044 18.54 9.58003V9.50003ZM17.54 13.69L7.88 19.31C7.66349 19.4327 7.41887 19.4972 7.17 19.4972C6.92113 19.4972 6.67652 19.4327 6.46 19.31C6.2441 19.1854 6.06482 19.0061 5.94018 18.7902C5.81555 18.5743 5.74996 18.3293 5.75 18.08V6.92003C5.74996 6.67072 5.81555 6.4258 5.94018 6.20989C6.06482 5.99397 6.2441 5.81468 6.46 5.69003C6.67741 5.56918 6.9213 5.50392 7.17 5.50003C7.41853 5.50513 7.66214 5.57032 7.88 5.69003L17.54 11.27C17.756 11.3946 17.9353 11.5739 18.0601 11.7898C18.1848 12.0057 18.2504 12.2507 18.2504 12.5C18.2504 12.7494 18.1848 12.9943 18.0601 13.2102C17.9353 13.4262 17.756 13.6054 17.54 13.73V13.69Z" fill="#696C74"/>
</svg>
