<svg width="24" height="25" viewBox="0 0 24 25" fill="none" xmlns="http://www.w3.org/2000/svg">
<path d="M14.94 5.59637C15.3181 5.16065 15.6063 4.65454 15.7882 4.10711C15.9701 3.55967 16.0421 2.9817 16 2.40637C14.8394 2.50006 13.762 3.04593 13 3.92637C12.6351 4.34835 12.3586 4.83925 12.1868 5.37002C12.015 5.90078 11.9515 6.46062 12 7.01637C12.5661 7.02109 13.1258 6.89547 13.6356 6.64923C14.1454 6.40299 14.5917 6.04275 14.94 5.59637ZM17.46 13.0364C17.4667 12.2701 17.6685 11.5182 18.0465 10.8516C18.4244 10.185 18.9659 9.62563 19.62 9.22637C19.2072 8.63161 18.6615 8.14121 18.0262 7.79405C17.3909 7.44689 16.6835 7.25252 15.96 7.22637C14.4 7.06637 12.96 8.13637 12.13 8.13637C11.3 8.13637 10.13 7.24637 8.83 7.26637C7.98013 7.29437 7.15202 7.54215 6.42645 7.98556C5.70088 8.42896 5.10261 9.05285 4.69 9.79637C2.93 12.8564 4.24 17.4064 6 19.8764C6.8 21.0864 7.8 22.4564 9.12 22.4064C10.44 22.3564 10.87 21.5864 12.4 21.5864C13.93 21.5864 14.4 22.4064 15.7 22.3764C17 22.3464 17.92 21.1364 18.76 19.9264C19.355 19.0479 19.8199 18.088 20.14 17.0764C19.3475 16.7384 18.6713 16.1757 18.195 15.4577C17.7188 14.7397 17.4632 13.8979 17.46 13.0364Z" fill="white"/>
</svg>
